Lexend-LooseThinItalic.ufo
<glyph name="dollar" format="2">
  <advance width="705"/>
  <unicode hex="0024"/>
  <outline>
    <contour>
      <point x="363" y="-10" type="curve" smooth="yes"/>
      <point x="490" y="-10"/>
      <point x="592" y="69"/>
      <point x="592" y="170" type="curve" smooth="yes"/>
      <point x="592" y="287"/>
      <point x="512" y="317"/>
      <point x="373" y="366" type="curve" smooth="yes"/>
      <point x="234" y="415"/>
      <point x="176" y="446"/>
      <point x="176" y="526" type="curve" smooth="yes"/>
      <point x="176" y="618"/>
      <point x="256" y="681"/>
      <point x="365" y="681" type="curve" smooth="yes"/>
      <point x="453" y="681"/>
      <point x="521" y="635"/>
      <point x="560" y="590" type="curve"/>
      <point x="575" y="605" type="line"/>
      <point x="532" y="656"/>
      <point x="468" y="703"/>
      <point x="364" y="703" type="curve" smooth="yes"/>
      <point x="244" y="703"/>
      <point x="154" y="634"/>
      <point x="154" y="529" type="curve" smooth="yes"/>
      <point x="154" y="429"/>
      <point x="221" y="396"/>
      <point x="360" y="347" type="curve" smooth="yes"/>
      <point x="487" y="302"/>
      <point x="570" y="272"/>
      <point x="570" y="173" type="curve" smooth="yes"/>
      <point x="570" y="82"/>
      <point x="476" y="12"/>
      <point x="364" y="12" type="curve" smooth="yes"/>
      <point x="268" y="12"/>
      <point x="189" y="46"/>
      <point x="134" y="110" type="curve"/>
      <point x="121" y="92" type="line"/>
      <point x="175" y="28"/>
      <point x="267" y="-10"/>
    </contour>
    <contour>
      <point x="354" y="-91" type="line"/>
      <point x="376" y="-91" type="line"/>
      <point x="376" y="354" type="line"/>
      <point x="354" y="359" type="line"/>
    </contour>
    <contour>
      <point x="376" y="359" type="line"/>
      <point x="376" y="782" type="line"/>
      <point x="354" y="782" type="line"/>
      <point x="354" y="363" type="line"/>
    </contour>
  </outline>
</glyph>
<glyph name="parenright" format="2">
  <advance width="533"/>
  <unicode hex="0029"/>
  <outline>
    <contour>
      <point x="131" y="-186" type="line"/>
      <point x="294" y="-85"/>
      <point x="382" y="73"/>
      <point x="382" y="258" type="curve" smooth="yes"/>
      <point x="382" y="445"/>
      <point x="295" y="601"/>
      <point x="132" y="702" type="curve"/>
      <point x="117" y="685" type="line"/>
      <point x="285" y="574"/>
      <point x="359" y="431"/>
      <point x="359" y="258" type="curve" smooth="yes"/>
      <point x="359" y="82"/>
      <point x="278" y="-64"/>
      <point x="117" y="-169" type="curve"/>
    </contour>
  </outline>
</glyph>
<glyph name="three" format="2">
  <advance width="664"/>
  <unicode hex="0033"/>
  <outline>
    <contour>
      <point x="334" y="-10" type="curve" smooth="yes"/>
      <point x="465" y="-10"/>
      <point x="563" y="94"/>
      <point x="563" y="222" type="curve" smooth="yes"/>
      <point x="563" y="353"/>
      <point x="474" y="445"/>
      <point x="350" y="445" type="curve" smooth="yes"/>
      <point x="299" y="445"/>
      <point x="270" y="431"/>
      <point x="235" y="406" type="curve"/>
      <point x="245" y="400" type="line"/>
      <point x="535" y="676" type="line"/>
      <point x="522" y="700" type="line"/>
      <point x="159" y="700" type="line"/>
      <point x="159" y="678" type="line"/>
      <point x="514" y="678" type="line"/>
      <point x="514" y="687" type="line"/>
      <point x="197" y="383" type="line"/>
      <point x="211" y="361" type="line"/>
      <point x="262" y="418"/>
      <point x="307" y="423"/>
      <point x="350" y="423" type="curve" smooth="yes"/>
      <point x="455" y="423"/>
      <point x="540" y="337"/>
      <point x="540" y="222" type="curve" smooth="yes"/>
      <point x="540" y="107"/>
      <point x="453" y="12"/>
      <point x="336" y="12" type="curve" smooth="yes"/>
      <point x="251" y="12"/>
      <point x="177" y="41"/>
      <point x="110" y="150" type="curve"/>
      <point x="90" y="138" type="line"/>
      <point x="154" y="30"/>
      <point x="235" y="-10"/>
    </contour>
  </outline>
</glyph>
<glyph name="D" format="2">
  <advance width="901"/>
  <unicode hex="0044"/>
  <anchor x="453" y="0" name="bottom"/>
  <anchor x="242" y="350" name="center"/>
  <anchor x="453" y="700" name="top"/>
  <outline>
    <contour>
      <point x="194" y="0" type="line"/>
      <point x="441" y="0" type="line" smooth="yes"/>
      <point x="612" y="0"/>
      <point x="766" y="149"/>
      <point x="766" y="350" type="curve" smooth="yes"/>
      <point x="766" y="553"/>
      <point x="612" y="700"/>
      <point x="441" y="700" type="curve" smooth="yes"/>
      <point x="194" y="700" type="line"/>
    </contour>
    <contour>
      <point x="216" y="13" type="line"/>
      <point x="216" y="689" type="line"/>
      <point x="205" y="678" type="line"/>
      <point x="436" y="678" type="line" smooth="yes"/>
      <point x="597" y="678"/>
      <point x="743" y="537"/>
      <point x="743" y="350" type="curve" smooth="yes"/>
      <point x="743" y="165"/>
      <point x="597" y="22"/>
      <point x="436" y="22" type="curve" smooth="yes"/>
      <point x="206" y="22" type="line"/>
    </contour>
  </outline>
</glyph>
<glyph name="I" format="2">
  <advance width="622"/>
  <unicode hex="0049"/>
  <anchor x="311" y="0" name="bottom"/>
  <anchor x="377" y="0" name="ogonek"/>
  <anchor x="311" y="700" name="top"/>
  <anchor x="138" y="700" name="topleft"/>
  <outline>
    <contour>
      <point x="168" y="0" type="line"/>
      <point x="454" y="0" type="line"/>
      <point x="454" y="22" type="line"/>
      <point x="322" y="22" type="line"/>
      <point x="322" y="678" type="line"/>
      <point x="454" y="678" type="line"/>
      <point x="454" y="700" type="line"/>
      <point x="168" y="700" type="line"/>
      <point x="168" y="678" type="line"/>
      <point x="300" y="678" type="line"/>
      <point x="300" y="22" type="line"/>
      <point x="168" y="22" type="line"/>
    </contour>
  </outline>
</glyph>
<glyph name="R" format="2">
  <advance width="795"/>
  <unicode hex="0052"/>
  <anchor x="389" y="0" name="bottom"/>
  <anchor x="389" y="700" name="top"/>
  <outline>
    <contour>
      <point x="194" y="0" type="line"/>
      <point x="216" y="0" type="line"/>
      <point x="216" y="291" type="line"/>
      <point x="445" y="291" type="line" smooth="yes"/>
      <point x="556" y="291"/>
      <point x="629" y="379"/>
      <point x="629" y="507" type="curve" smooth="yes"/>
      <point x="629" y="622"/>
      <point x="556" y="700"/>
      <point x="445" y="700" type="curve" smooth="yes"/>
      <point x="194" y="700" type="line"/>
    </contour>
    <contour>
      <point x="627" y="0" type="line"/>
      <point x="653" y="0" type="line"/>
      <point x="475" y="305" type="line"/>
      <point x="452" y="298" type="line"/>
    </contour>
    <contour>
      <point x="216" y="313" type="line"/>
      <point x="216" y="678" type="line"/>
      <point x="451" y="678" type="line" smooth="yes"/>
      <point x="544" y="678"/>
      <point x="606" y="607"/>
      <point x="606" y="507" type="curve" smooth="yes"/>
      <point x="606" y="392"/>
      <point x="544" y="313"/>
      <point x="451" y="313" type="curve" smooth="yes"/>
    </contour>
  </outline>
</glyph>
<glyph name="S" format="2">
  <advance width="718"/>
  <unicode hex="0053"/>
  <anchor x="402" y="0" name="bottom"/>
  <anchor x="382" y="700" name="top"/>
  <outline>
    <contour>
      <point x="381" y="-10" type="curve" smooth="yes"/>
      <point x="508" y="-10"/>
      <point x="605" y="68"/>
      <point x="605" y="172" type="curve" smooth="yes"/>
      <point x="605" y="277"/>
      <point x="509" y="323"/>
      <point x="350" y="363" type="curve" smooth="yes"/>
      <point x="238" y="392"/>
      <point x="166" y="435"/>
      <point x="166" y="526" type="curve" smooth="yes"/>
      <point x="166" y="621"/>
      <point x="255" y="688"/>
      <point x="370" y="688" type="curve" smooth="yes"/>
      <point x="469" y="688"/>
      <point x="528" y="655"/>
      <point x="572" y="596" type="curve"/>
      <point x="589" y="611" type="line"/>
      <point x="544" y="674"/>
      <point x="478" y="710"/>
      <point x="370" y="710" type="curve" smooth="yes"/>
      <point x="242" y="710"/>
      <point x="143" y="631"/>
      <point x="143" y="526" type="curve" smooth="yes"/>
      <point x="143" y="426"/>
      <point x="216" y="377"/>
      <point x="342" y="342" type="curve" smooth="yes"/>
      <point x="483" y="302"/>
      <point x="582" y="268"/>
      <point x="582" y="172" type="curve" smooth="yes"/>
      <point x="582" y="79"/>
      <point x="493" y="12"/>
      <point x="381" y="12" type="curve" smooth="yes"/>
      <point x="272" y="12"/>
      <point x="190" y="52"/>
      <point x="139" y="131" type="curve"/>
      <point x="121" y="115" type="line"/>
      <point x="174" y="35"/>
      <point x="262" y="-10"/>
    </contour>
  </outline>
</glyph>
<glyph name="T" format="2">
  <advance width="618"/>
  <unicode hex="0054"/>
  <anchor x="309" y="0" name="bottom"/>
  <anchor x="309" y="350" name="center"/>
  <anchor x="309" y="700" name="top"/>
  <outline>
    <contour>
      <point x="298" y="0" type="line"/>
      <point x="320" y="0" type="line"/>
      <point x="320" y="678" type="line"/>
      <point x="533" y="678" type="line"/>
      <point x="533" y="700" type="line"/>
      <point x="85" y="700" type="line"/>
      <point x="85" y="678" type="line"/>
      <point x="298" y="678" type="line"/>
    </contour>
  </outline>
</glyph>
<glyph name="Y" format="2">
  <advance width="732"/>
  <unicode hex="0059"/>
  <anchor x="366" y="0" name="bottom"/>
  <anchor x="366" y="700" name="top"/>
  <anchor x="90" y="700" name="topleft"/>
  <outline>
    <contour>
      <point x="359" y="0" type="line"/>
      <point x="381" y="0" type="line"/>
      <point x="381" y="339" type="line"/>
      <point x="372" y="300" type="line"/>
      <point x="642" y="700" type="line"/>
      <point x="616" y="700" type="line"/>
      <point x="364" y="327" type="line"/>
      <point x="375" y="327" type="line"/>
      <point x="116" y="700" type="line"/>
      <point x="90" y="700" type="line"/>
      <point x="367" y="300" type="line"/>
      <point x="359" y="339" type="line"/>
    </contour>
  </outline>
</glyph>
<glyph name="asciicircum" format="2">
  <advance width="707"/>
  <unicode hex="005E"/>
  <outline>
    <contour>
      <point x="111" y="368" type="line"/>
      <point x="138" y="368" type="line"/>
      <point x="357" y="708" type="line"/>
      <point x="349" y="708" type="line"/>
      <point x="568" y="368" type="line"/>
      <point x="595" y="368" type="line"/>
      <point x="364" y="727" type="line"/>
      <point x="342" y="727" type="line"/>
    </contour>
  </outline>
</glyph>
<glyph name="b" format="2">
  <advance width="840"/>
  <unicode hex="0062"/>
  <anchor x="449" y="0" name="bottom"/>
  <anchor x="449" y="740" name="top"/>
  <outline>
    <contour>
      <point x="460" y="-10" type="curve" smooth="yes"/>
      <point x="597" y="-10"/>
      <point x="710" y="105"/>
      <point x="710" y="262" type="curve" smooth="yes"/>
      <point x="710" y="418"/>
      <point x="603" y="530"/>
      <point x="456" y="530" type="curve" smooth="yes"/>
      <point x="348" y="530"/>
      <point x="258" y="453"/>
      <point x="231" y="345" type="curve"/>
      <point x="240" y="348" type="line"/>
      <point x="240" y="740" type="line"/>
      <point x="218" y="740" type="line"/>
      <point x="218" y="0" type="line"/>
      <point x="238" y="0" type="line"/>
      <point x="240" y="167" type="line"/>
      <point x="234" y="170" type="line"/>
      <point x="253" y="67"/>
      <point x="353" y="-10"/>
    </contour>
    <contour>
      <point x="459" y="12" type="curve" smooth="yes"/>
      <point x="334" y="12"/>
      <point x="240" y="116"/>
      <point x="240" y="260" type="curve" smooth="yes"/>
      <point x="240" y="407"/>
      <point x="334" y="508"/>
      <point x="457" y="508" type="curve" smooth="yes"/>
      <point x="594" y="508"/>
      <point x="688" y="403"/>
      <point x="688" y="262" type="curve" smooth="yes"/>
      <point x="688" y="117"/>
      <point x="594" y="12"/>
    </contour>
  </outline>
</glyph>
<glyph name="c" format="2">
  <advance width="721"/>
  <unicode hex="0063"/>
  <anchor x="353" y="0" name="bottom"/>
  <anchor x="353" y="525" name="top"/>
  <outline>
    <contour>
      <point x="396" y="-10" type="curve" smooth="yes"/>
      <point x="479" y="-10"/>
      <point x="546" y="23"/>
      <point x="594" y="77" type="curve"/>
      <point x="578" y="93" type="line"/>
      <point x="534" y="42"/>
      <point x="470" y="12"/>
      <point x="396" y="12" type="curve" smooth="yes"/>
      <point x="254" y="12"/>
      <point x="153" y="116"/>
      <point x="152" y="263" type="curve" smooth="yes"/>
      <point x="153" y="406"/>
      <point x="255" y="508"/>
      <point x="396" y="508" type="curve" smooth="yes"/>
      <point x="472" y="508"/>
      <point x="535" y="477"/>
      <point x="580" y="426" type="curve"/>
      <point x="596" y="443" type="line"/>
      <point x="549" y="497"/>
      <point x="480" y="530"/>
      <point x="396" y="530" type="curve" smooth="yes"/>
      <point x="240" y="530"/>
      <point x="130" y="420"/>
      <point x="130" y="263" type="curve" smooth="yes"/>
      <point x="130" y="104"/>
      <point x="240" y="-10"/>
    </contour>
  </outline>
</glyph>
<glyph name="f" format="2">
  <advance width="537"/>
  <unicode hex="0066"/>
  <anchor x="270" y="0" name="bottom"/>
  <anchor x="270" y="740" name="top"/>
  <outline>
    <contour>
      <point x="240" y="0" type="line"/>
      <point x="244" y="0"/>
      <point x="249" y="0"/>
      <point x="254" y="0" type="curve" smooth="yes"/>
      <point x="262" y="0" type="line"/>
      <point x="262" y="625" type="line" smooth="yes"/>
      <point x="262" y="704"/>
      <point x="295" y="728"/>
      <point x="343" y="728" type="curve" smooth="yes"/>
      <point x="378" y="728"/>
      <point x="403" y="720"/>
      <point x="426" y="693" type="curve"/>
      <point x="440" y="708" type="line"/>
      <point x="421" y="733"/>
      <point x="393" y="750"/>
      <point x="345" y="750" type="curve" smooth="yes"/>
      <point x="282" y="750"/>
      <point x="240" y="714"/>
      <point x="240" y="626" type="curve" smooth="yes"/>
    </contour>
    <contour>
      <point x="130" y="503" type="line"/>
      <point x="414" y="503" type="line"/>
      <point x="414" y="525" type="line"/>
      <point x="130" y="525" type="line"/>
    </contour>
  </outline>
</glyph>
<glyph name="r" format="2">
  <advance width="569"/>
  <unicode hex="0072"/>
  <anchor x="304" y="0" name="bottom"/>
  <anchor x="304" y="525" name="top"/>
  <outline>
    <contour>
      <point x="218" y="0" type="line"/>
      <point x="240" y="0" type="line"/>
      <point x="240" y="338" type="line" smooth="yes"/>
      <point x="240" y="410"/>
      <point x="293" y="508"/>
      <point x="401" y="508" type="curve" smooth="yes"/>
      <point x="416" y="508"/>
      <point x="436" y="506"/>
      <point x="457" y="499" type="curve"/>
      <point x="464" y="522" type="line"/>
      <point x="448" y="527"/>
      <point x="429" y="530"/>
      <point x="406" y="530" type="curve" smooth="yes"/>
      <point x="306" y="530"/>
      <point x="246" y="461"/>
      <point x="233" y="396" type="curve"/>
      <point x="239" y="398" type="line"/>
      <point x="238" y="525" type="line"/>
      <point x="218" y="525" type="line"/>
    </contour>
  </outline>
</glyph>
<glyph name="x" format="2">
  <advance width="745"/>
  <unicode hex="0078"/>
  <anchor x="373" y="0" name="bottom"/>
  <anchor x="373" y="525" name="top"/>
  <outline>
    <contour>
      <point x="570" y="0" type="line"/>
      <point x="600" y="0" type="line"/>
      <point x="381" y="273" type="line"/>
      <point x="374" y="281" type="line"/>
      <point x="187" y="525" type="line"/>
      <point x="157" y="525" type="line"/>
      <point x="362" y="260" type="line"/>
      <point x="365" y="255" type="line"/>
    </contour>
    <contour>
      <point x="145" y="0" type="line"/>
      <point x="175" y="0" type="line"/>
      <point x="379" y="257" type="line"/>
      <point x="363" y="272" type="line"/>
    </contour>
    <contour>
      <point x="382" y="261" type="line"/>
      <point x="587" y="525" type="line"/>
      <point x="557" y="525" type="line"/>
      <point x="370" y="281" type="line"/>
    </contour>
  </outline>
</glyph>
<glyph name="y" format="2">
  <advance width="711"/>
  <unicode hex="0079"/>
  <anchor x="486" y="0" name="bottom"/>
  <anchor x="356" y="525" name="top"/>
  <outline>
    <contour>
      <point x="262" y="-230" type="line"/>
      <point x="287" y="-230" type="line"/>
      <point x="374" y="-13" type="line"/>
      <point x="591" y="525" type="line"/>
      <point x="566" y="525" type="line"/>
      <point x="380" y="62" type="line" smooth="yes"/>
      <point x="374" y="48"/>
      <point x="368" y="34"/>
      <point x="363" y="20" type="curve"/>
      <point x="372" y="25" type="line"/>
      <point x="369" y="31"/>
      <point x="367" y="35"/>
      <point x="357" y="57" type="curve" smooth="yes"/>
      <point x="145" y="525" type="line"/>
      <point x="120" y="525" type="line"/>
      <point x="362" y="-7" type="line"/>
      <point x="357" y="9" type="line"/>
    </contour>
  </outline>
</glyph>
<glyph name="section" format="2">
  <advance width="689"/>
  <unicode hex="00A7"/>
  <outline>
    <contour>
      <point x="428" y="168" type="line"/>
      <point x="483" y="188"/>
      <point x="533" y="232"/>
      <point x="533" y="302" type="curve" smooth="yes"/>
      <point x="533" y="347"/>
      <point x="513" y="390"/>
      <point x="437" y="418" type="curve" smooth="yes"/>
      <point x="294" y="471" type="line" smooth="yes"/>
      <point x="234" y="493"/>
      <point x="206" y="531"/>
      <point x="206" y="575" type="curve" smooth="yes"/>
      <point x="206" y="643"/>
      <point x="264" y="681"/>
      <point x="340" y="681" type="curve" smooth="yes"/>
      <point x="409" y="681"/>
      <point x="469" y="653"/>
      <point x="514" y="601" type="curve"/>
      <point x="530" y="619" type="line"/>
      <point x="482" y="675"/>
      <point x="413" y="703"/>
      <point x="340" y="703" type="curve" smooth="yes"/>
      <point x="249" y="703"/>
      <point x="182" y="655"/>
      <point x="182" y="576" type="curve" smooth="yes"/>
      <point x="182" y="511"/>
      <point x="222" y="474"/>
      <point x="282" y="451" type="curve" smooth="yes"/>
      <point x="429" y="396" type="line" smooth="yes"/>
      <point x="474" y="379"/>
      <point x="509" y="356"/>
      <point x="509" y="304" type="curve" smooth="yes"/>
      <point x="509" y="235"/>
      <point x="452" y="197"/>
      <point x="408" y="183" type="curve"/>
    </contour>
    <contour>
      <point x="360" y="-61" type="curve" smooth="yes"/>
      <point x="454" y="-61"/>
      <point x="523" y="-13"/>
      <point x="523" y="66" type="curve" smooth="yes"/>
      <point x="523" y="131"/>
      <point x="478" y="167"/>
      <point x="413" y="191" type="curve" smooth="yes"/>
      <point x="266" y="246" type="line" smooth="yes"/>
      <point x="221" y="263"/>
      <point x="186" y="287"/>
      <point x="186" y="339" type="curve" smooth="yes"/>
      <point x="186" y="407"/>
      <point x="243" y="445"/>
      <point x="287" y="459" type="curve"/>
      <point x="266" y="474" type="line"/>
      <point x="210" y="452"/>
      <point x="162" y="405"/>
      <point x="162" y="340" type="curve" smooth="yes"/>
      <point x="162" y="295"/>
      <point x="182" y="252"/>
      <point x="258" y="224" type="curve" smooth="yes"/>
      <point x="401" y="171" type="line" smooth="yes"/>
      <point x="467" y="147"/>
      <point x="499" y="111"/>
      <point x="499" y="67" type="curve" smooth="yes"/>
      <point x="499" y="-1"/>
      <point x="439" y="-39"/>
      <point x="360" y="-39" type="curve" smooth="yes"/>
      <point x="283" y="-39"/>
      <point x="216" y="-14"/>
      <point x="166" y="26" type="curve"/>
      <point x="150" y="8" type="line"/>
      <point x="203" y="-36"/>
      <point x="279" y="-61"/>
    </contour>
  </outline>
</glyph>
<glyph name="copyright" format="2">
  <advance width="954"/>
  <unicode hex="00A9"/>
  <outline>
    <contour>
      <point x="477" y="-8" type="curve" smooth="yes"/>
      <point x="677" y="-8"/>
      <point x="835" y="149"/>
      <point x="835" y="349" type="curve" smooth="yes"/>
      <point x="835" y="549"/>
      <point x="677" y="707"/>
      <point x="477" y="707" type="curve" smooth="yes"/>
      <point x="277" y="707"/>
      <point x="120" y="549"/>
      <point x="120" y="349" type="curve" smooth="yes"/>
      <point x="120" y="149"/>
      <point x="277" y="-8"/>
    </contour>
    <contour>
      <point x="483" y="142" type="curve" smooth="yes"/>
      <point x="530" y="142"/>
      <point x="576" y="157"/>
      <point x="616" y="185" type="curve"/>
      <point x="604" y="201" type="line"/>
      <point x="568" y="177"/>
      <point x="534" y="164"/>
      <point x="483" y="164" type="curve" smooth="yes"/>
      <point x="382" y="164"/>
      <point x="301" y="247"/>
      <point x="301" y="350" type="curve" smooth="yes"/>
      <point x="301" y="447"/>
      <point x="383" y="535"/>
      <point x="483" y="535" type="curve" smooth="yes"/>
      <point x="538" y="535"/>
      <point x="579" y="510"/>
      <point x="599" y="494" type="curve"/>
      <point x="612" y="512" type="line"/>
      <point x="573" y="541"/>
      <point x="528" y="557"/>
      <point x="483" y="557" type="curve" smooth="yes"/>
      <point x="368" y="557"/>
      <point x="279" y="465"/>
      <point x="279" y="350" type="curve" smooth="yes"/>
      <point x="279" y="230"/>
      <point x="368" y="142"/>
    </contour>
    <contour>
      <point x="478" y="14" type="curve" smooth="yes"/>
      <point x="290" y="14"/>
      <point x="143" y="162"/>
      <point x="143" y="350" type="curve" smooth="yes"/>
      <point x="143" y="537"/>
      <point x="290" y="685"/>
      <point x="478" y="685" type="curve" smooth="yes"/>
      <point x="665" y="685"/>
      <point x="812" y="537"/>
      <point x="812" y="350" type="curve" smooth="yes"/>
      <point x="812" y="162"/>
      <point x="665" y="14"/>
    </contour>
  </outline>
</glyph>
<glyph name="AE" format="2">
  <advance width="1101"/>
  <unicode hex="00C6"/>
  <anchor x="553" y="0" name="bottom"/>
  <anchor x="735" y="700" name="top"/>
  <outline>
    <contour>
      <point x="90" y="0" type="line"/>
      <point x="118" y="0" type="line"/>
      <point x="582" y="687" type="line"/>
      <point x="576" y="691" type="line"/>
      <point x="576" y="238" type="line"/>
      <point x="272" y="238" type="line"/>
      <point x="257" y="216" type="line"/>
      <point x="576" y="216" type="line"/>
      <point x="576" y="0" type="line"/>
      <point x="951" y="0" type="line"/>
      <point x="951" y="22" type="line"/>
      <point x="598" y="22" type="line"/>
      <point x="598" y="350" type="line"/>
      <point x="894" y="350" type="line"/>
      <point x="894" y="372" type="line"/>
      <point x="598" y="372" type="line"/>
      <point x="598" y="678" type="line"/>
      <point x="951" y="678" type="line"/>
      <point x="951" y="700" type="line"/>
      <point x="566" y="700" type="line"/>
    </contour>
  </outline>
</glyph>
<glyph name="eth" format="2">
  <advance width="756"/>
  <unicode hex="00F0"/>
  <outline>
    <contour>
      <point x="378" y="-10" type="curve" smooth="yes"/>
      <point x="522" y="-10"/>
      <point x="626" y="104"/>
      <point x="626" y="259" type="curve" smooth="yes"/>
      <point x="626" y="534"/>
      <point x="501" y="696"/>
      <point x="301" y="739" type="curve"/>
      <point x="291" y="718" type="line"/>
      <point x="450" y="690"/>
      <point x="591" y="532"/>
      <point x="591" y="371" type="curve"/>
      <point x="601" y="369" type="line"/>
      <point x="592" y="441"/>
      <point x="493" y="527"/>
      <point x="382" y="527" type="curve" smooth="yes"/>
      <point x="235" y="527"/>
      <point x="130" y="422"/>
      <point x="130" y="263" type="curve" smooth="yes"/>
      <point x="130" y="102"/>
      <point x="231" y="-10"/>
    </contour>
    <contour>
      <point x="378" y="12" type="curve" smooth="yes"/>
      <point x="246" y="12"/>
      <point x="153" y="116"/>
      <point x="153" y="263" type="curve" smooth="yes"/>
      <point x="153" y="406"/>
      <point x="246" y="505"/>
      <point x="378" y="505" type="curve" smooth="yes"/>
      <point x="510" y="505"/>
      <point x="603" y="406"/>
      <point x="603" y="263" type="curve" smooth="yes"/>
      <point x="603" y="116"/>
      <point x="510" y="12"/>
    </contour>
    <contour>
      <point x="254" y="574" type="line"/>
      <point x="471" y="633" type="line"/>
      <point x="485" y="637" type="line"/>
      <point x="583" y="663" type="line"/>
      <point x="577" y="684" type="line"/>
      <point x="464" y="653" type="line"/>
      <point x="451" y="650" type="line"/>
      <point x="250" y="596" type="line"/>
    </contour>
  </outline>
</glyph>
<glyph name="dcroat" format="2">
  <advance width="842"/>
  <unicode hex="0111"/>
  <anchor x="591" y="634" name="_center"/>
  <anchor x="392" y="0" name="bottom"/>
  <anchor x="591" y="634" name="center"/>
  <anchor x="392" y="740" name="top"/>
  <anchor x="632" y="740" name="topright"/>
  <outline>
    <contour>
      <point x="457" y="623" type="line"/>
      <point x="725" y="623" type="line"/>
      <point x="725" y="644" type="line"/>
      <point x="457" y="644" type="line"/>
    </contour>
    <component base="d"/>
  </outline>
</glyph>
<glyph name="eogonek" format="2">
  <advance width="730"/>
  <unicode hex="0119"/>
  <anchor x="365" y="525" name="top"/>
  <anchor x="353" y="0" name="bottom"/>
  <anchor x="546" y="0" name="ogonek"/>
  <outline>
    <contour>
      <point x="486" y="-232" type="curve" smooth="yes"/>
      <point x="523" y="-232"/>
      <point x="555" y="-210"/>
      <point x="571" y="-178" type="curve"/>
      <point x="556" y="-165" type="line"/>
      <point x="541" y="-192"/>
      <point x="518" y="-210"/>
      <point x="486" y="-210" type="curve" smooth="yes"/>
      <point x="444" y="-210"/>
      <point x="413" y="-176"/>
      <point x="413" y="-128" type="curve" smooth="yes"/>
      <point x="413" y="-69"/>
      <point x="460" y="-9"/>
      <point x="542" y="47" type="curve"/>
      <point x="537" y="63" type="line"/>
      <point x="453" y="10"/>
      <point x="391" y="-52"/>
      <point x="391" y="-131" type="curve" smooth="yes"/>
      <point x="391" y="-189"/>
      <point x="435" y="-232"/>
    </contour>
    <component base="e"/>
  </outline>
</glyph>
<glyph name="Lslash" format="2">
  <advance width="652"/>
  <unicode hex="0141"/>
  <anchor x="351" y="0" name="bottom"/>
  <anchor x="205" y="350" name="center"/>
  <anchor x="205" y="700" name="top"/>
  <anchor x="382" y="700" name="topright"/>
  <outline>
    <contour>
      <point x="99" y="312" type="line"/>
      <point x="364" y="433" type="line"/>
      <point x="356" y="454" type="line"/>
      <point x="91" y="333" type="line"/>
    </contour>
    <component base="L"/>
  </outline>
</glyph>
<glyph name="lslash" format="2">
  <advance width="438"/>
  <unicode hex="0142"/>
  <anchor x="219" y="0" name="bottom"/>
  <anchor x="219" y="370" name="center"/>
  <anchor x="219" y="740" name="top"/>
  <anchor x="242" y="740" name="topright"/>
  <outline>
    <contour>
      <point x="91" y="283" type="line"/>
      <point x="355" y="404" type="line"/>
      <point x="347" y="425" type="line"/>
      <point x="83" y="304" type="line"/>
    </contour>
    <component base="l"/>
  </outline>
</glyph>
<glyph name="oe" format="2">
  <advance width="1253"/>
  <unicode hex="0153"/>
  <anchor x="408" y="0" name="bottom"/>
  <anchor x="408" y="525" name="top"/>
  <outline>
    <contour>
      <point x="398" y="-10" type="curve" smooth="yes"/>
      <point x="538" y="-10"/>
      <point x="639" y="79"/>
      <point x="661" y="209" type="curve"/>
      <point x="647" y="209" type="line"/>
      <point x="668" y="79"/>
      <point x="766" y="-10"/>
      <point x="900" y="-10" type="curve" smooth="yes"/>
      <point x="976" y="-10"/>
      <point x="1038" y="20"/>
      <point x="1087" y="65" type="curve"/>
      <point x="1075" y="83" type="line"/>
      <point x="1028" y="39"/>
      <point x="969" y="12"/>
      <point x="900" y="12" type="curve" smooth="yes"/>
      <point x="757" y="12"/>
      <point x="665" y="125"/>
      <point x="665" y="263" type="curve" smooth="yes"/>
      <point x="665" y="408"/>
      <point x="761" y="508"/>
      <point x="891" y="508" type="curve" smooth="yes"/>
      <point x="997" y="508"/>
      <point x="1092" y="430"/>
      <point x="1092" y="307" type="curve" smooth="yes"/>
      <point x="1092" y="278" type="line"/>
      <point x="1105" y="287" type="line"/>
      <point x="661" y="287" type="line"/>
      <point x="660" y="265" type="line"/>
      <point x="1112" y="265" type="line"/>
      <point x="1113" y="291" type="line" smooth="yes"/>
      <point x="1119" y="438"/>
      <point x="1020" y="530"/>
      <point x="888" y="530" type="curve" smooth="yes"/>
      <point x="760" y="530"/>
      <point x="667" y="444"/>
      <point x="647" y="315" type="curve"/>
      <point x="661" y="317" type="line"/>
      <point x="638" y="444"/>
      <point x="538" y="530"/>
      <point x="398" y="530" type="curve" smooth="yes"/>
      <point x="241" y="530"/>
      <point x="130" y="419"/>
      <point x="130" y="263" type="curve" smooth="yes"/>
      <point x="130" y="104"/>
      <point x="241" y="-10"/>
    </contour>
    <contour>
      <point x="398" y="12" type="curve" smooth="yes"/>
      <point x="255" y="12"/>
      <point x="152" y="116"/>
      <point x="152" y="263" type="curve" smooth="yes"/>
      <point x="152" y="404"/>
      <point x="255" y="508"/>
      <point x="398" y="508" type="curve" smooth="yes"/>
      <point x="539" y="508"/>
      <point x="643" y="404"/>
      <point x="643" y="263" type="curve" smooth="yes"/>
      <point x="643" y="116"/>
      <point x="539" y="12"/>
    </contour>
  </outline>
</glyph>
<glyph name="tbar" format="2">
  <advance width="575"/>
  <unicode hex="0167"/>
  <anchor x="272" y="0" name="bottom"/>
  <anchor x="272" y="263" name="center"/>
  <anchor x="272" y="525" name="top"/>
  <anchor x="319" y="740" name="topright"/>
  <outline>
    <contour>
      <point x="141" y="252" type="line"/>
      <point x="409" y="252" type="line"/>
      <point x="409" y="273" type="line"/>
      <point x="141" y="273" type="line"/>
    </contour>
    <component base="t"/>
  </outline>
</glyph>
<glyph name="Ohorn" format="2">
  <advance width="958"/>
  <unicode hex="01A0"/>
  <anchor x="479" y="0" name="bottom"/>
  <anchor x="479" y="700" name="top"/>
  <outline>
    <contour>
      <point x="479" y="-10" type="curve" smooth="yes"/>
      <point x="680" y="-10"/>
      <point x="823" y="138"/>
      <point x="823" y="349" type="curve" smooth="yes"/>
      <point x="823" y="512"/>
      <point x="739" y="637"/>
      <point x="609" y="687" type="curve"/>
      <point x="597" y="676" type="line"/>
      <point x="699" y="667"/>
      <point x="751" y="710"/>
      <point x="751" y="799" type="curve"/>
      <point x="729" y="799" type="line"/>
      <point x="729" y="729"/>
      <point x="691" y="696"/>
      <point x="623" y="696" type="curve" smooth="yes"/>
      <point x="606" y="696"/>
      <point x="580" y="698"/>
      <point x="553" y="703" type="curve" smooth="yes"/>
      <point x="529" y="707"/>
      <point x="505" y="710"/>
      <point x="479" y="710" type="curve" smooth="yes"/>
      <point x="278" y="710"/>
      <point x="135" y="560"/>
      <point x="135" y="349" type="curve" smooth="yes"/>
      <point x="135" y="138"/>
      <point x="278" y="-10"/>
    </contour>
    <contour>
      <point x="479" y="12" type="curve" smooth="yes"/>
      <point x="294" y="12"/>
      <point x="158" y="153"/>
      <point x="158" y="349" type="curve" smooth="yes"/>
      <point x="158" y="545"/>
      <point x="294" y="688"/>
      <point x="479" y="688" type="curve" smooth="yes"/>
      <point x="666" y="688"/>
      <point x="800" y="545"/>
      <point x="800" y="349" type="curve" smooth="yes"/>
      <point x="800" y="153"/>
      <point x="666" y="12"/>
    </contour>
  </outline>
</glyph>
<glyph name="Uhorn" format="2">
  <advance width="857"/>
  <unicode hex="01AF"/>
  <anchor x="454" y="0" name="bottom"/>
  <anchor x="454" y="700" name="top"/>
  <outline>
    <contour>
      <point x="450" y="-6" type="curve" smooth="yes"/>
      <point x="605" y="-6"/>
      <point x="716" y="109"/>
      <point x="716" y="269" type="curve" smooth="yes"/>
      <point x="716" y="692" type="line"/>
      <point x="702" y="679" type="line"/>
      <point x="788" y="679"/>
      <point x="831" y="721"/>
      <point x="831" y="799" type="curve"/>
      <point x="809" y="799" type="line"/>
      <point x="809" y="732"/>
      <point x="771" y="700"/>
      <point x="703" y="700" type="curve" smooth="yes"/>
      <point x="694" y="700" type="line"/>
      <point x="694" y="278" type="line" smooth="yes"/>
      <point x="694" y="125"/>
      <point x="594" y="16"/>
      <point x="450" y="16" type="curve" smooth="yes"/>
      <point x="310" y="16"/>
      <point x="214" y="125"/>
      <point x="214" y="278" type="curve" smooth="yes"/>
      <point x="214" y="700" type="line"/>
      <point x="192" y="700" type="line"/>
      <point x="192" y="269" type="line" smooth="yes"/>
      <point x="192" y="109"/>
      <point x="299" y="-6"/>
    </contour>
  </outline>
</glyph>
<glyph name="oogonek" format="2">
  <advance width="795"/>
  <unicode hex="01EB"/>
  <anchor x="398" y="525" name="top"/>
  <anchor x="398" y="0" name="bottom"/>
  <anchor x="398" y="263" name="center"/>
  <anchor x="548" y="0" name="ogonek"/>
  <anchor x="685" y="525" name="topright"/>
  <outline>
    <contour>
      <point x="513" y="-232" type="curve" smooth="yes"/>
      <point x="550" y="-232"/>
      <point x="582" y="-210"/>
      <point x="598" y="-178" type="curve"/>
      <point x="583" y="-165" type="line"/>
      <point x="568" y="-192"/>
      <point x="545" y="-210"/>
      <point x="513" y="-210" type="curve" smooth="yes"/>
      <point x="471" y="-210"/>
      <point x="440" y="-176"/>
      <point x="440" y="-128" type="curve" smooth="yes"/>
      <point x="440" y="-69"/>
      <point x="487" y="-9"/>
      <point x="555" y="37" type="curve"/>
      <point x="550" y="53" type="line"/>
      <point x="480" y="10"/>
      <point x="418" y="-52"/>
      <point x="418" y="-131" type="curve" smooth="yes"/>
      <point x="418" y="-189"/>
      <point x="462" y="-232"/>
    </contour>
    <component base="o"/>
  </outline>
</glyph>
<glyph name="jdotless" format="2">
  <advance width="484"/>
  <unicode hex="0237"/>
  <anchor x="261" y="-230" name="bottom"/>
  <anchor x="261" y="525" name="top"/>
  <outline>
    <contour>
      <point x="148" y="-194" type="line"/>
      <point x="228" y="-194"/>
      <point x="274" y="-147"/>
      <point x="274" y="-60" type="curve" smooth="yes"/>
      <point x="274" y="525" type="line"/>
      <point x="252" y="525" type="line"/>
      <point x="252" y="-56" type="line" smooth="yes"/>
      <point x="252" y="-125"/>
      <point x="223" y="-173"/>
      <point x="140" y="-173" type="curve"/>
    </contour>
  </outline>
</glyph>
<glyph name="acutecomb" format="2">
  <unicode hex="0301"/>
  <anchor x="250" y="525" name="_top"/>
  <anchor x="250" y="690" name="top"/>
  <outline>
    <contour>
      <point x="183" y="611" type="line"/>
      <point x="327" y="715" type="line"/>
      <point x="313" y="736" type="line"/>
      <point x="173" y="626" type="line"/>
    </contour>
  </outline>
</glyph>
<glyph name="hungarumlautcomb" format="2">
  <unicode hex="030B"/>
  <anchor x="250" y="525" name="_top"/>
  <anchor x="250" y="680" name="top"/>
  <outline>
    <contour>
      <point x="243" y="601" type="line"/>
      <point x="387" y="705" type="line"/>
      <point x="373" y="726" type="line"/>
      <point x="233" y="616" type="line"/>
    </contour>
    <contour>
      <point x="123" y="601" type="line"/>
      <point x="267" y="705" type="line"/>
      <point x="253" y="726" type="line"/>
      <point x="113" y="616" type="line"/>
    </contour>
  </outline>
</glyph>
<glyph name="commaturnedabovecomb" format="2">
  <unicode hex="0312"/>
  <anchor x="250" y="525" name="_top"/>
  <anchor x="250" y="690" name="top"/>
  <outline>
    <contour>
      <point x="255" y="610" type="curve" smooth="yes"/>
      <point x="273" y="610"/>
      <point x="282" y="622"/>
      <point x="282" y="634" type="curve" smooth="yes"/>
      <point x="282" y="647"/>
      <point x="276" y="656"/>
      <point x="262" y="663" type="curve" smooth="yes"/>
      <point x="248" y="670"/>
      <point x="245" y="675"/>
      <point x="245" y="686" type="curve" smooth="yes"/>
      <point x="245" y="706"/>
      <point x="264" y="720"/>
      <point x="279" y="733" type="curve"/>
      <point x="266" y="746" type="line"/>
      <point x="228" y="715"/>
      <point x="219" y="691"/>
      <point x="219" y="656" type="curve" smooth="yes"/>
      <point x="219" y="628"/>
      <point x="233" y="610"/>
    </contour>
  </outline>
</glyph>
<glyph name="horncomb" format="2">
  <unicode hex="031B"/>
  <anchor x="171" y="525" name="_topright"/>
  <anchor x="308" y="624" name="topright"/>
  <outline>
    <contour>
      <point x="178" y="505" type="line"/>
      <point x="258" y="505"/>
      <point x="288" y="545"/>
      <point x="288" y="624" type="curve"/>
      <point x="266" y="624" type="line"/>
      <point x="266" y="556"/>
      <point x="244" y="525"/>
      <point x="171" y="525" type="curve"/>
    </contour>
  </outline>
</glyph>
<glyph name="pi" format="2">
  <advance width="774"/>
  <unicode hex="03C0"/>
  <outline>
    <contour>
      <point x="194" y="0" type="line"/>
      <point x="216" y="0" type="line"/>
      <point x="216" y="502" type="line"/>
      <point x="207" y="495" type="line"/>
      <point x="564" y="495" type="line"/>
      <point x="558" y="502" type="line"/>
      <point x="558" y="0" type="line"/>
      <point x="580" y="0" type="line"/>
      <point x="580" y="502" type="line"/>
      <point x="573" y="495" type="line"/>
      <point x="654" y="495" type="line"/>
      <point x="654" y="517" type="line"/>
      <point x="120" y="517" type="line"/>
      <point x="120" y="495" type="line"/>
      <point x="203" y="495" type="line"/>
      <point x="194" y="502" type="line"/>
    </contour>
  </outline>
</glyph>
<glyph name="quoteleft" format="2">
  <advance width="336"/>
  <unicode hex="2018"/>
  <outline>
    <contour>
      <point x="196" y="572" type="curve" smooth="yes"/>
      <point x="216" y="572"/>
      <point x="226" y="584"/>
      <point x="226" y="600" type="curve" smooth="yes"/>
      <point x="226" y="615"/>
      <point x="218" y="625"/>
      <point x="207" y="629" type="curve" smooth="yes"/>
      <point x="188" y="636"/>
      <point x="178" y="641"/>
      <point x="178" y="662" type="curve" smooth="yes"/>
      <point x="178" y="679"/>
      <point x="198" y="708"/>
      <point x="223" y="736" type="curve"/>
      <point x="214" y="748" type="line"/>
      <point x="158" y="700"/>
      <point x="150" y="670"/>
      <point x="150" y="633" type="curve" smooth="yes"/>
      <point x="150" y="593"/>
      <point x="167" y="572"/>
    </contour>
  </outline>
</glyph>
<glyph name="quoteright" format="2">
  <advance width="436"/>
  <unicode hex="2019"/>
  <outline>
    <contour>
      <point x="222" y="572" type="line"/>
      <point x="278" y="620"/>
      <point x="286" y="650"/>
      <point x="286" y="687" type="curve" smooth="yes"/>
      <point x="286" y="727"/>
      <point x="269" y="748"/>
      <point x="240" y="748" type="curve" smooth="yes"/>
      <point x="220" y="748"/>
      <point x="210" y="736"/>
      <point x="210" y="720" type="curve" smooth="yes"/>
      <point x="210" y="705"/>
      <point x="218" y="695"/>
      <point x="229" y="691" type="curve" smooth="yes"/>
      <point x="248" y="684"/>
      <point x="258" y="679"/>
      <point x="258" y="658" type="curve" smooth="yes"/>
      <point x="258" y="641"/>
      <point x="238" y="612"/>
      <point x="213" y="584" type="curve"/>
    </contour>
  </outline>
</glyph>
<glyph name="guilsinglright" format="2">
  <advance width="454"/>
  <unicode hex="203A"/>
  <outline>
    <contour>
      <point x="162" y="64" type="line"/>
      <point x="331" y="247" type="line"/>
      <point x="331" y="253" type="line"/>
      <point x="162" y="448" type="line"/>
      <point x="143" y="435" type="line"/>
      <point x="314" y="240" type="line"/>
      <point x="314" y="260" type="line"/>
      <point x="143" y="77" type="line"/>
    </contour>
  </outline>
</glyph>
<glyph name="fraction" format="2">
  <advance width="856"/>
  <unicode hex="2044"/>
  <outline>
    <contour>
      <point x="182" y="0" type="line"/>
      <point x="209" y="0" type="line"/>
      <point x="677" y="700" type="line"/>
      <point x="650" y="700" type="line"/>
    </contour>
  </outline>
</glyph>
<glyph name="euro" format="2">
  <advance width="748"/>
  <unicode hex="20AC"/>
  <outline>
    <contour>
      <point x="474" y="-10" type="curve" smooth="yes"/>
      <point x="533" y="-10"/>
      <point x="587" y="2"/>
      <point x="634" y="25" type="curve"/>
      <point x="619" y="43" type="line"/>
      <point x="576" y="23"/>
      <point x="527" y="12"/>
      <point x="474" y="12" type="curve" smooth="yes"/>
      <point x="289" y="12"/>
      <point x="153" y="151"/>
      <point x="153" y="346" type="curve" smooth="yes"/>
      <point x="153" y="543"/>
      <point x="289" y="688"/>
      <point x="474" y="688" type="curve" smooth="yes"/>
      <point x="527" y="688"/>
      <point x="577" y="675"/>
      <point x="620" y="652" type="curve"/>
      <point x="635" y="670" type="line"/>
      <point x="588" y="695"/>
      <point x="534" y="710"/>
      <point x="474" y="710" type="curve" smooth="yes"/>
      <point x="273" y="710"/>
      <point x="130" y="558"/>
      <point x="130" y="346" type="curve" smooth="yes"/>
      <point x="130" y="137"/>
      <point x="273" y="-10"/>
    </contour>
    <contour>
      <point x="50" y="259" type="line"/>
      <point x="502" y="259" type="line"/>
      <point x="502" y="281" type="line"/>
      <point x="50" y="281" type="line"/>
    </contour>
    <contour>
      <point x="50" y="400" type="line"/>
      <point x="502" y="400" type="line"/>
      <point x="502" y="422" type="line"/>
      <point x="50" y="422" type="line"/>
    </contour>
  </outline>
</glyph>
<glyph name="cedi" format="2">
  <advance width="861"/>
  <unicode hex="20B5"/>
  <anchor x="425" y="0" name="bottom"/>
  <anchor x="425" y="700" name="top"/>
  <outline>
    <contour>
      <point x="459" y="-85" type="line"/>
      <point x="480" y="-85" type="line"/>
      <point x="480" y="-6" type="line"/>
      <point x="480" y="8" type="line"/>
      <point x="480" y="691" type="line"/>
      <point x="480" y="707" type="line"/>
      <point x="480" y="785" type="line"/>
      <point x="459" y="785" type="line"/>
      <point x="459" y="707" type="line"/>
      <point x="459" y="692" type="line"/>
      <point x="459" y="8" type="line"/>
      <point x="459" y="-5" type="line"/>
    </contour>
    <component base="C"/>
  </outline>
</glyph>
<glyph name="manat" format="2">
  <advance width="913"/>
  <unicode hex="20BC"/>
  <outline>
    <contour>
      <point x="194" y="0" type="line"/>
      <point x="216" y="0" type="line"/>
      <point x="216" y="422" type="line" smooth="yes"/>
      <point x="216" y="575"/>
      <point x="312" y="684"/>
      <point x="452" y="684" type="curve" smooth="yes"/>
      <point x="596" y="684"/>
      <point x="696" y="575"/>
      <point x="696" y="422" type="curve" smooth="yes"/>
      <point x="696" y="0" type="line"/>
      <point x="718" y="0" type="line"/>
      <point x="718" y="431" type="line" smooth="yes"/>
      <point x="718" y="591"/>
      <point x="607" y="706"/>
      <point x="452" y="706" type="curve" smooth="yes"/>
      <point x="301" y="706"/>
      <point x="195" y="591"/>
      <point x="194" y="431" type="curve" smooth="yes"/>
    </contour>
    <contour>
      <point x="441" y="254" type="line"/>
      <point x="463" y="254" type="line"/>
      <point x="463" y="801" type="line"/>
      <point x="441" y="801" type="line"/>
    </contour>
  </outline>
</glyph>
<glyph name="estimated" format="2">
  <advance width="847"/>
  <unicode hex="212E"/>
  <outline>
    <contour>
      <point x="436" y="-11" type="curve" smooth="yes"/>
      <point x="541" y="-11"/>
      <point x="606" y="27"/>
      <point x="667" y="115" type="curve" smooth="yes"/>
      <point x="670" y="119"/>
      <point x="673" y="125"/>
      <point x="673" y="130" type="curve" smooth="yes"/>
      <point x="673" y="143"/>
      <point x="662" y="150"/>
      <point x="651" y="150" type="curve" smooth="yes"/>
      <point x="644" y="150"/>
      <point x="638" y="146"/>
      <point x="634" y="139" type="curve" smooth="yes"/>
      <point x="585" y="60"/>
      <point x="520" y="28"/>
      <point x="436" y="28" type="curve" smooth="yes"/>
      <point x="301" y="28"/>
      <point x="216" y="137"/>
      <point x="216" y="213" type="curve" smooth="yes"/>
      <point x="216" y="292" type="line"/>
      <point x="210" y="285" type="line"/>
      <point x="690" y="285" type="line" smooth="yes"/>
      <point x="705" y="285"/>
      <point x="713" y="297"/>
      <point x="712" y="309" type="curve" smooth="yes"/>
      <point x="703" y="469"/>
      <point x="592" y="581"/>
      <point x="436" y="581" type="curve" smooth="yes"/>
      <point x="269" y="581"/>
      <point x="160" y="450"/>
      <point x="160" y="285" type="curve" smooth="yes"/>
      <point x="160" y="121"/>
      <point x="269" y="-11"/>
    </contour>
    <contour>
      <point x="216" y="314" type="line"/>
      <point x="216" y="365" type="line" smooth="yes"/>
      <point x="216" y="452"/>
      <point x="312" y="543"/>
      <point x="435" y="543" type="curve" smooth="yes"/>
      <point x="559" y="543"/>
      <point x="654" y="458"/>
      <point x="654" y="355" type="curve" smooth="yes"/>
      <point x="654" y="320" type="line"/>
      <point x="668" y="324" type="line"/>
      <point x="206" y="324" type="line"/>
    </contour>
  </outline>
</glyph>
<glyph name="summation" format="2">
  <advance width="669"/>
  <unicode hex="2211"/>
  <outline>
    <contour>
      <point x="128" y="0" type="line"/>
      <point x="553" y="0" type="line"/>
      <point x="553" y="22" type="line"/>
      <point x="155" y="22" type="line"/>
      <point x="155" y="16" type="line"/>
      <point x="435" y="331" type="line"/>
      <point x="435" y="346" type="line"/>
      <point x="160" y="667" type="line"/>
      <point x="162" y="654" type="line"/>
      <point x="543" y="654" type="line"/>
      <point x="543" y="676" type="line"/>
      <point x="136" y="676" type="line"/>
      <point x="133" y="663" type="line"/>
      <point x="416" y="330" type="line"/>
      <point x="415" y="347" type="line"/>
      <point x="123" y="15" type="line"/>
    </contour>
  </outline>
</glyph>
<glyph name="brevecomb_tildecomb" format="2">
  <anchor x="250" y="525" name="_top"/>
  <anchor x="250" y="780" name="top"/>
  <outline>
    <contour>
      <point x="249" y="603" type="curve" smooth="yes"/>
      <point x="316" y="603"/>
      <point x="366" y="648"/>
      <point x="381" y="723" type="curve"/>
      <point x="359" y="725" type="line"/>
      <point x="347" y="661"/>
      <point x="301" y="624"/>
      <point x="249" y="624" type="curve" smooth="yes"/>
      <point x="196" y="624"/>
      <point x="152" y="661"/>
      <point x="139" y="725" type="curve"/>
      <point x="117" y="723" type="line"/>
      <point x="133" y="648"/>
      <point x="181" y="603"/>
    </contour>
    <contour>
      <point x="318" y="773" type="curve" smooth="yes"/>
      <point x="348" y="773"/>
      <point x="375" y="793"/>
      <point x="383" y="832" type="curve"/>
      <point x="364" y="836" type="line"/>
      <point x="355" y="803"/>
      <point x="337" y="795"/>
      <point x="317" y="795" type="curve" smooth="yes"/>
      <point x="292" y="795"/>
      <point x="270" y="808"/>
      <point x="251" y="820" type="curve" smooth="yes"/>
      <point x="231" y="833"/>
      <point x="213" y="846"/>
      <point x="187" y="846" type="curve" smooth="yes"/>
      <point x="154" y="846"/>
      <point x="128" y="823"/>
      <point x="121" y="789" type="curve"/>
      <point x="144" y="785" type="line"/>
      <point x="150" y="813"/>
      <point x="167" y="824"/>
      <point x="187" y="824" type="curve" smooth="yes"/>
      <point x="208" y="824"/>
      <point x="226" y="812"/>
      <point x="246" y="800" type="curve" smooth="yes"/>
      <point x="267" y="787"/>
      <point x="292" y="773"/>
    </contour>
  </outline>
</glyph>
<glyph name="circumflexcomb_acutecomb" format="2">
  <anchor x="225" y="525" name="_top"/>
  <anchor x="226" y="780" name="top"/>
  <outline>
    <contour>
      <point x="116" y="611" type="line"/>
      <point x="233" y="703" type="line"/>
      <point x="218" y="703" type="line"/>
      <point x="334" y="611" type="line"/>
      <point x="346" y="624" type="line"/>
      <point x="239" y="716" type="line"/>
      <point x="211" y="716" type="line"/>
      <point x="104" y="624" type="line"/>
    </contour>
    <contour>
      <point x="310" y="720" type="line"/>
      <point x="397" y="825" type="line"/>
      <point x="374" y="842" type="line"/>
      <point x="295" y="731" type="line"/>
    </contour>
  </outline>
</glyph>
<glyph name="g.ss01" format="2">
  <advance width="622"/>
  <anchor x="311" y="-230" name="bottom"/>
  <anchor x="311" y="525" name="top"/>
  <outline>
    <contour>
      <point x="309" y="-231" type="curve" smooth="yes"/>
      <point x="452" y="-231"/>
      <point x="538" y="-164"/>
      <point x="538" y="-76" type="curve" smooth="yes"/>
      <point x="538" y="20"/>
      <point x="452" y="79"/>
      <point x="309" y="79" type="curve" smooth="yes"/>
      <point x="204" y="79" type="line" smooth="yes"/>
      <point x="161" y="79"/>
      <point x="135" y="97"/>
      <point x="135" y="130" type="curve" smooth="yes"/>
      <point x="135" y="157"/>
      <point x="160" y="180"/>
      <point x="204" y="180" type="curve" smooth="yes"/>
      <point x="301" y="180" type="line" smooth="yes"/>
      <point x="418" y="180"/>
      <point x="496" y="254"/>
      <point x="496" y="357" type="curve" smooth="yes"/>
      <point x="496" y="408"/>
      <point x="486" y="448"/>
      <point x="391" y="516" type="curve"/>
      <point x="385" y="498" type="line"/>
      <point x="542" y="498" type="line"/>
      <point x="542" y="520" type="line"/>
      <point x="339" y="520" type="line"/>
      <point x="398" y="511" type="line"/>
      <point x="350" y="528"/>
      <point x="321" y="531"/>
      <point x="301" y="531" type="curve" smooth="yes"/>
      <point x="193" y="531"/>
      <point x="106" y="453"/>
      <point x="106" y="357" type="curve" smooth="yes"/>
      <point x="106" y="289"/>
      <point x="138" y="227"/>
      <point x="238" y="187" type="curve"/>
      <point x="216" y="201" type="line"/>
      <point x="136" y="200"/>
      <point x="112" y="169"/>
      <point x="112" y="129" type="curve" smooth="yes"/>
      <point x="112" y="86"/>
      <point x="135" y="59"/>
      <point x="222" y="56" type="curve"/>
      <point x="222" y="72" type="line"/>
      <point x="122" y="41"/>
      <point x="80" y="-9"/>
      <point x="80" y="-76" type="curve" smooth="yes"/>
      <point x="80" y="-164"/>
      <point x="160" y="-231"/>
    </contour>
    <contour>
      <point x="308" y="-209" type="curve" smooth="yes"/>
      <point x="184" y="-209"/>
      <point x="103" y="-152"/>
      <point x="103" y="-76" type="curve" smooth="yes"/>
      <point x="103" y="7"/>
      <point x="184" y="57"/>
      <point x="308" y="57" type="curve" smooth="yes"/>
      <point x="435" y="57"/>
      <point x="515" y="7"/>
      <point x="515" y="-76" type="curve" smooth="yes"/>
      <point x="515" y="-152"/>
      <point x="435" y="-209"/>
    </contour>
    <contour>
      <point x="301" y="202" type="curve" smooth="yes"/>
      <point x="204" y="202"/>
      <point x="129" y="268"/>
      <point x="129" y="357" type="curve" smooth="yes"/>
      <point x="129" y="442"/>
      <point x="204" y="509"/>
      <point x="301" y="509" type="curve" smooth="yes"/>
      <point x="398" y="509"/>
      <point x="473" y="441"/>
      <point x="473" y="357" type="curve" smooth="yes"/>
      <point x="473" y="264"/>
      <point x="398" y="202"/>
    </contour>
  </outline>
</glyph>
<glyph name="horncomb.case" format="2">
  <anchor x="186" y="521" name="_topright"/>
  <anchor x="334" y="624" name="topright"/>
  <outline>
    <contour>
      <point x="186" y="500" type="line"/>
      <point x="271" y="500"/>
      <point x="314" y="543"/>
      <point x="314" y="624" type="curve"/>
      <point x="292" y="624" type="line"/>
      <point x="292" y="554"/>
      <point x="254" y="521"/>
      <point x="186" y="521" type="curve"/>
    </contour>
  </outline>
</glyph>
<glyph name="tildecomb_dieresiscomb" format="2">
  <anchor x="251" y="525" name="_top"/>
  <anchor x="250" y="805" name="top"/>
  <outline>
    <contour>
      <point x="325" y="778" type="curve" smooth="yes"/>
      <point x="344" y="778"/>
      <point x="353" y="790"/>
      <point x="353" y="807" type="curve" smooth="yes"/>
      <point x="353" y="824"/>
      <point x="342" y="836"/>
      <point x="325" y="836" type="curve" smooth="yes"/>
      <point x="306" y="836"/>
      <point x="297" y="823"/>
      <point x="297" y="807" type="curve" smooth="yes"/>
      <point x="297" y="790"/>
      <point x="306" y="778"/>
    </contour>
    <contour>
      <point x="175" y="778" type="curve" smooth="yes"/>
      <point x="194" y="778"/>
      <point x="203" y="790"/>
      <point x="203" y="807" type="curve" smooth="yes"/>
      <point x="203" y="824"/>
      <point x="192" y="836"/>
      <point x="175" y="836" type="curve" smooth="yes"/>
      <point x="156" y="836"/>
      <point x="147" y="823"/>
      <point x="147" y="807" type="curve" smooth="yes"/>
      <point x="147" y="790"/>
      <point x="156" y="778"/>
    </contour>
    <component base="tildecomb"/>
  </outline>
</glyph>
